<?xml version="1.0" standalone="no"?>
 <!DOCTYPE svg PUBLIC "-//W3C//DTD SVG 1.1//EN" 
 "http://www.w3.org/Graphics/SVG/1.1/DTD/svg11.dtd"> 
<svg
  xmlns:svg="http://www.w3.org/2000/svg"
  xmlns="http://www.w3.org/2000/svg"
  xmlns:xlink="http://www.w3.org/1999/xlink"
  version="1.1"
  width="297.0022mm" height="210.0072mm" viewBox="0.0000 0.0000 297.0022 210.0072">
<title>SVG Image created as Main_Board_Loto_V2-User_Drawings.svg date 2025/08/03 20:32:45 </title>
  <desc>Image generated by PCBNEW </desc>
<g style="fill:#000000; fill-opacity:1.0000;stroke:#000000; stroke-opacity:1.0000;
stroke-linecap:round; stroke-linejoin:round;"
 transform="translate(0 0) scale(1 1)">
</g>
<g style="fill:none; 
stroke:#000000; stroke-width:0.1000; stroke-opacity:1; 
stroke-linecap:round; stroke-linejoin:round;">
<path d="M154.7000 134.7000
L177.7000 126.7000
" />
<path d="M150.9500 112.7250
L154.7000 112.7250
" />
<path d="M80.6000 57.4000
L91.5000 71.2000
" />
<path d="M93.7000 45.1000
L58.7000 60.1250
" />
<path d="M140.3000 72.3000
L136.8000 57.4000
" />
<path d="M147.7000 164.5000
L108.7000 164.5000
" />
<path d="M100.7000 53.5750
L91.7000 52.5750
" />
<path d="M80.2400 113.8400
L87.7400 113.8400
" />
<path d="M147.7000 134.7000
L154.7000 134.7000
" />
<path d="M150.9500 112.7250
L158.3000 100.2000
" />
<path d="M154.7000 112.7250
L177.7000 126.7000
" />
<path d="M50.0000 74.1000
L66.4000 77.7000
" />
<path d="M69.7000 164.5000
L108.7000 164.5000
" />
<path d="M151.0000 77.7000
L145.6000 82.4000
" />
<path d="M62.7000 112.7250
L39.7000 126.7000
" />
<path d="M66.4500 112.7250
L59.1000 100.2000
" />
<path d="M66.4500 112.7250
L62.7000 112.7250
" />
<path d="M123.7000 45.1000
L158.7000 60.1250
" />
<path d="M145.6000 82.4000
L140.3000 72.3000
" />
<path d="M62.7000 134.7000
L39.7000 126.7000
" />
<path d="M167.4000 74.1000
L151.0000 77.7000
" />
<path d="M108.7000 26.1000
L79.7000 30.6250
" />
<path d="M136.7000 84.4750
L119.6500 100.9500
" />
<path d="M59.1000 100.2000
L50.0000 74.1000
" />
<path d="M123.7000 45.1000
L116.7000 53.5750
" />
<path d="M158.7000 25.1250
L137.7000 30.6250
" />
<path d="M91.5000 71.2000
L97.7000 67.5750
" />
<path d="M93.7000 45.1000
L100.7000 53.5750
" />
<path d="M91.7000 52.5750
L97.7000 67.5750
" />
<path d="M116.7000 53.5750
L125.7000 52.5750
" />
<path d="M158.3000 100.2000
L167.4000 74.1000
" />
<path d="M77.1000 72.3000
L80.6000 57.4000
" />
<path d="M58.7000 25.1250
L79.7000 30.6250
" />
<path d="M108.7000 26.1000
L137.7000 30.6250
" />
<path d="M71.8000 82.4000
L77.1000 72.3000
" />
<path d="M69.7000 134.7000
L62.7000 134.7000
" />
<path d="M69.7000 134.7000
L69.7000 164.5000
" />
<path d="M125.9000 71.2000
L119.7000 67.5750
" />
<path d="M136.8000 57.4000
L125.9000 71.2000
" />
<path d="M147.7000 134.7000
L147.7000 164.5000
" />
<path d="M158.7000 25.1250
L158.7000 60.1250
" />
<path d="M125.7000 52.5750
L119.7000 67.5750
" />
<path d="M66.4000 77.7000
L71.8000 82.4000
" />
<path d="M58.7000 25.1250
L58.7000 60.1250
" />
</g> 
</svg>
